<svg width="55.301" height="78.501" viewBox="0 0 55.301 78.501" xmlns="http://www.w3.org/2000/svg"><g id="svgGroup" stroke-linecap="round" fill="black" font-size="9pt" stroke="#000" stroke-width="0.25mm"  style="stroke:#000;stroke-width:0.25mm;fill:black"><path d="M 0 50.8 L 0 4.7 A 5.52 5.52 0 0 1 0.207 3.154 A 4.262 4.262 0 0 1 1.3 1.3 A 4.376 4.376 0 0 1 3.88 0.054 A 6.071 6.071 0 0 1 4.7 0 A 5.52 5.52 0 0 1 6.247 0.207 A 4.262 4.262 0 0 1 8.1 1.3 A 4.376 4.376 0 0 1 9.347 3.88 A 6.071 6.071 0 0 1 9.4 4.7 L 9.4 32.5 Q 12.8 28.1 17.9 25.55 Q 23 23 29.2 23 Q 36.6 23 42.5 26.65 Q 48.4 30.3 51.85 36.55 Q 55.3 42.8 55.3 50.7 A 29.331 29.331 0 0 1 53.91 59.842 A 26.347 26.347 0 0 1 51.65 64.9 Q 48 71.2 41.75 74.85 A 26.884 26.884 0 0 1 30.029 78.411 A 32.626 32.626 0 0 1 27.6 78.5 A 29.054 29.054 0 0 1 18.456 77.094 A 26.266 26.266 0 0 1 13.55 74.9 Q 7.3 71.3 3.7 65 A 28.266 28.266 0 0 1 0.098 52.99 A 34.072 34.072 0 0 1 0 50.8 Z M 27.6 70.2 A 18.846 18.846 0 0 0 33.787 69.207 A 17.131 17.131 0 0 0 37.1 67.65 Q 41.3 65.1 43.75 60.65 A 19.927 19.927 0 0 0 46.162 52.059 A 23.853 23.853 0 0 0 46.2 50.7 A 21.88 21.88 0 0 0 45.509 45.103 A 18.379 18.379 0 0 0 43.75 40.75 Q 41.3 36.4 37.1 33.85 A 17.691 17.691 0 0 0 28.625 31.325 A 21.389 21.389 0 0 0 27.6 31.3 A 18.846 18.846 0 0 0 21.414 32.293 A 17.131 17.131 0 0 0 18.1 33.85 Q 13.9 36.4 11.5 40.75 Q 9.1 45.1 9.1 50.7 Q 9.1 56.2 11.5 60.65 Q 13.9 65.1 18.1 67.65 A 17.691 17.691 0 0 0 26.576 70.176 A 21.389 21.389 0 0 0 27.6 70.2 Z" vector-effect="non-scaling-stroke"/></g></svg>